<svg width="200" height="200" viewBox="0 0 1254 1254" xmlns="http://www.w3.org/2000/svg" role="img" aria-label="The Property Plug">
  <g transform="translate(0,1254) scale(0.1,-0.1)" fill="#1F4D3C" stroke="none">
  <path d="M6151 10849 c-157 -19 -329 -87 -447 -176 -50 -37 -1298 -1136 -2671
-2350 -387 -342 -502 -454 -572 -557 -51 -74 -109 -204 -138 -311 l-28 -100
-3 -2135 c-2 -1585 0 -2154 8 -2210 63 -404 376 -742 786 -847 64 -17 158 -18
1314 -18 l1245 0 89 23 c346 88 605 326 715 657 43 130 51 213 51 519 l0 273
128 6 c269 13 518 113 716 290 123 109 256 312 315 479 65 186 64 179 70 812
l6 578 49 5 c169 14 274 195 202 348 -23 52 -78 107 -125 128 -16 7 -117 14
-271 17 l-245 5 -5 615 c-5 612 -5 615 -27 657 -77 142 -278 172 -384 56 -68
-74 -63 -22 -69 -708 l-5 -620 -597 -3 -597 -2 -3 612 c-3 607 -3 613 -25 653
-48 90 -127 139 -221 138 -108 -1 -204 -72 -232 -171 -6 -23 -10 -254 -10
-634 l0 -598 -218 0 c-248 0 -286 -7 -347 -67 -52 -51 -75 -105 -75 -181 0
-128 80 -221 212 -246 l37 -7 4 -567 c3 -535 5 -572 25 -657 54 -230 148 -412
297 -573 207 -224 524 -362 833 -362 l72 0 0 -262 c0 -287 -8 -343 -58 -446
-37 -77 -119 -162 -193 -202 -129 -68 -43 -64 -1326 -67 -1282 -4 -1242 -6
-1373 59 -138 67 -248 219 -270 373 -6 45 -10 800 -9 2105 0 2252 -4 2130 64
2259 47 88 72 115 325 336 112 99 245 216 295 261 49 44 185 163 300 264 116
102 531 468 924 815 1211 1068 1322 1164 1377 1190 128 61 268 59 392 -4 47
-24 144 -108 1392 -1196 491 -429 1319 -1150 1516 -1320 253 -219 292 -258
333 -334 66 -124 61 39 59 -2298 l-3 -2118 -22 -58 c-49 -129 -155 -239 -284
-295 l-64 -27 -1255 -5 c-1246 -5 -1255 -5 -1300 -26 -95 -44 -150 -127 -150
-229 0 -76 24 -128 83 -182 85 -78 -2 -74 1398 -71 l1244 3 95 26 c52 15 126
41 164 58 236 107 441 325 526 560 69 191 64 -4 68 2311 2 1440 0 2128 -8
2201 -13 133 -40 229 -95 348 -91 190 -129 230 -700 727 -220 191 -539 470
-710 619 -391 341 -895 781 -1089 950 -82 72 -296 258 -475 414 -379 329 -365
318 -467 376 -164 94 -377 137 -563 114z m191 -5069 l899 0 -3 -557 -3 -558
-28 -80 c-85 -241 -270 -407 -506 -451 -67 -13 -152 -15 -484 -12 l-402 4 -80
27 c-172 58 -308 174 -384 328 -76 156 -75 143 -78 709 -2 278 0 524 3 547 5
40 7 42 42 46 20 3 57 3 81 1 24 -2 448 -4 943 -4z"/>
  </g>
</svg>
